# xmcd
#
# Track frame offsets: 
#        150
#        11860
#        24575
#        35352
#        47597
#        58105
#        68310
#        79642
#        92550
#        103562
#        116070
#        128457
#        139742
#        151770
#        166150
#        179127
#        192130
#        204767
#
# Disc length: 2871 seconds
#
# Revision: 8
# Processed by: cddbd v1.5.2PL0 Copyright (c) Steve Scherf et al.
# Submitted via: ExactAudioCopy v0.99pb4
#
DISCID=dd0b3512
DTITLE=Various Artist - The Chess Blues-Rock Songbook: The Classic Originals 
DTITLE=[disc 2]
DYEAR=1997
DGENRE=Chicago Blues
TTITLE0=Chuck Berry - Rock and Roll Music
TTITLE1=Jimmy Rogers - Walking by Myself
TTITLE2=Bo Diddley - Mona
TTITLE3=Chuck Berry - Johnny B. Goode
TTITLE4=Dale Hawkins - Susie Q
TTITLE5=Chuck Berry - Memphis
TTITLE6=Chuck Berry - Back in the U.S.A.
TTITLE7=Howlin' Wolf - Back Door Man
TTITLE8=Elmore James - Madison Blues
TTITLE9=Howlin' Wolf - Spoonful
TTITLE10=Muddy Waters - You Shook Me
TTITLE11=Howling Wolf - The Red Rooster
TTITLE12=Sonny Boy Williamson [II] - Bring It On Home
TTITLE13=Sonny Boy Williamson [II] - Help Me
TTITLE14=Tommy Tucker - High Heel Sneakers
TTITLE15=Howlin' Wolf - Killing Floor
TTITLE16=Little Milton - More and More
TTITLE17=Etta James - Tell Mama
EXTD=2CD: MCA/Chess CHD2-9389 (1997-08-26), UPC 076732938928, BMG D220
EXTD=616.
EXTT0=
EXTT1=
EXTT2=
EXTT3=
EXTT4=
EXTT5=
EXTT6=
EXTT7=
EXTT8=
EXTT9=
EXTT10=
EXTT11=
EXTT12=
EXTT13=
EXTT14=
EXTT15=
EXTT16=
EXTT17=
PLAYORDER=
